<?xml version="1.0" encoding="iso-8859-1"?>
<!-- Uploaded to: SVG Repo, www.svgrepo.com, Generator: SVG Repo Mixer Tools -->
<svg fill="#000000" height="400px" width="400px" version="1.1" id="Layer_1" xmlns="http://www.w3.org/2000/svg" xmlns:xlink="http://www.w3.org/1999/xlink" 
	 viewBox="0 0 512 512" xml:space="preserve">
<g>
	<g>
		<path d="M510.634,469.718l-42.504-60.781c-0.544-0.778-0.369-1.496-0.127-1.961c0.242-0.465,0.73-1.019,1.679-1.019h20.594
			c2.82,0,5.405-1.569,6.708-4.069c1.303-2.5,1.107-5.519-0.509-7.829l-39.047-55.839c-0.544-0.778-0.369-1.494-0.127-1.959
			c0.242-0.464,0.73-1.019,1.679-1.019h24.053c2.82,0,5.405-1.569,6.708-4.069c1.303-2.5,1.107-5.519-0.509-7.829l-80.288-114.818
			c-1.415-2.024-3.73-3.229-6.198-3.229c-2.469,0-4.784,1.205-6.198,3.229l-23.858,34.119L263.225,34.427
			c-1.308-2.487-3.886-4.044-6.696-4.044c-2.81,0-5.388,1.557-6.696,4.044L139.916,243.511l-24.463-34.984
			c-1.415-2.024-3.73-3.229-6.198-3.229c-2.469,0-4.784,1.205-6.198,3.229L22.766,323.344c-1.616,2.311-1.812,5.328-0.509,7.829
			c1.303,2.5,3.888,4.069,6.708,4.069h24.053c0.949,0,1.437,0.555,1.68,1.02c0.242,0.464,0.417,1.181-0.128,1.959l-39.045,55.838
			c-1.616,2.311-1.812,5.328-0.509,7.829c1.303,2.5,3.888,4.069,6.708,4.069h20.595c0.949,0,1.437,0.554,1.679,1.019
			c0.242,0.465,0.417,1.183-0.127,1.961L1.365,469.718c-1.616,2.311-1.812,5.328-0.509,7.829c1.303,2.5,3.888,4.069,6.708,4.069
			h134.148h69.231h90.115h70.29h133.088c2.82,0,5.405-1.569,6.708-4.069C512.446,475.047,512.251,472.029,510.634,469.718z
			 M256.53,54.201l30.214,57.471L256.53,134.25l-30.214-22.577L256.53,54.201z M219.188,125.232l32.814,24.52
			c1.342,1.003,2.935,1.505,4.527,1.505s3.185-0.501,4.527-1.505l32.814-24.52l69.06,131.367l-21.505,30.752l-78.699-112.543
			c-1.415-2.024-3.73-3.229-6.198-3.229c-2.47,0-4.784,1.205-6.198,3.229l-79.227,113.301l-21.429-30.645L219.188,125.232z
			 M137.771,466.49H22.084l34.182-48.884c3.65-5.22,4.089-11.971,1.146-17.62c-2.942-5.648-8.727-9.156-15.096-9.156H36.24
			l30.725-43.938c3.65-5.219,4.09-11.969,1.148-17.619c-2.943-5.649-8.727-9.157-15.097-9.157h-9.533l65.77-94.054l52.618,75.247
			l-2.196,3.14c-1.616,2.311-1.812,5.328-0.509,7.829c1.303,2.5,3.888,4.069,6.708,4.069h6.512l2.635,3.769h-9.533
			c-6.369,0-12.153,3.509-15.096,9.157c-2.942,5.649-2.503,12.399,1.147,17.618l13.055,18.67l-13.098,18.732
			c-1.616,2.31-1.812,5.328-0.509,7.829c1.303,2.5,3.888,4.069,6.708,4.069h6.087c-1.049,1.119-1.958,2.391-2.69,3.797
			c-2.943,5.649-2.503,12.4,1.147,17.619l4.856,6.945L137.771,466.49z M185.796,335.244l-11.97,17.118l-9.888-14.14
			c-0.544-0.778-0.369-1.495-0.127-1.96c0.242-0.464,0.73-1.019,1.679-1.019H185.796z M301.056,466.489h-90.115H156.23l39.67-56.73
			c3.911-5.593,4.382-12.829,1.228-18.882c-3.154-6.054-9.352-9.814-16.179-9.814h-8.735l35.766-51.148
			c3.911-5.594,4.382-12.83,1.228-18.884c-3.154-6.053-9.353-9.813-16.179-9.813h-12.638l76.135-108.876l76.134,108.876h-12.638
			c-6.826,0-13.024,3.761-16.178,9.813c-3.154,6.052-2.683,13.289,1.228,18.884l35.766,51.148h-8.734
			c-6.827,0-13.025,3.761-16.179,9.814c-1.062,2.038-1.702,4.211-1.95,6.408c-0.03,0.209-0.052,0.42-0.067,0.632
			c-0.318,4.128,0.777,8.311,3.244,11.841l39.67,56.73H301.056z M174.51,406.976c0.242-0.465,0.73-1.019,1.679-1.019h3.908
			l-3.771,5.394l-1.688-2.414C174.094,408.159,174.268,407.441,174.51,406.976z M190.847,316.345h2.186
			c1.644,0,2.437,1.05,2.761,1.675c0.327,0.626,0.733,1.878-0.21,3.225l-0.656,0.937L190.847,316.345z M346.509,335.243
			c0.949,0,1.437,0.554,1.679,1.019c0.242,0.465,0.417,1.182-0.128,1.96l-9.357,13.382l-11.441-16.36H346.509z M321.151,316.346
			l-3.552,5.08l-0.125-0.181c-0.943-1.347-0.536-2.599-0.21-3.224c0.326-0.625,1.117-1.675,2.761-1.675H321.151z M337.36,408.937
			l-1.159,1.657l-3.241-4.636h2.849c0.949,0,1.437,0.555,1.679,1.019C337.731,407.441,337.904,408.159,337.36,408.937z
			 M375.288,466.488v0.001l-29.856-42.695l4.327-6.187c3.65-5.219,4.09-11.97,1.147-17.619c-0.732-1.405-1.641-2.678-2.69-3.797
			h7.146c2.82,0,5.405-1.569,6.708-4.069s1.107-5.519-0.509-7.829l-13.627-19.488l12.524-17.913
			c3.651-5.219,4.091-11.97,1.149-17.619c-2.943-5.649-8.727-9.157-15.097-9.157h-9.533l2.635-3.769h7.572
			c2.82,0,5.405-1.569,6.708-4.069c1.303-2.5,1.107-5.519-0.509-7.829l-2.725-3.897l52.088-74.489l65.77,94.054h-9.533
			c-6.369,0-12.154,3.509-15.096,9.158c-2.943,5.649-2.502,12.4,1.147,17.618l30.725,43.939h-6.074
			c-6.368,0-12.153,3.509-15.096,9.156c-2.943,5.648-2.504,12.4,1.146,17.62l34.183,48.883H375.288z"/>
	</g>
</g>
</svg>