<?xml version="1.0" encoding="iso-8859-1"?>
<!-- Uploaded to: SVG Repo, www.svgrepo.com, Generator: SVG Repo Mixer Tools -->
<svg fill="#000000" height="400px" width="400px" version="1.1" id="Layer_1" xmlns="http://www.w3.org/2000/svg" xmlns:xlink="http://www.w3.org/1999/xlink" 
	 viewBox="0 0 512 512" xml:space="preserve">
<g>
	<g>
		<g>
			<path d="M43.116,99.705c0,31.203,25.387,56.589,56.589,56.589s56.589-25.387,56.589-56.589s-25.387-56.589-56.589-56.589
				S43.116,68.502,43.116,99.705z M140.126,99.705c0,22.289-18.132,40.421-40.421,40.421s-40.421-18.132-40.421-40.421
				s18.132-40.421,40.421-40.421S140.126,77.417,140.126,99.705z"/>
			<path d="M78.147,265.976c-6.431-7.736-16.124-12.671-26.947-12.671c-4.466,0-8.084,3.619-8.084,8.084
				c0,4.466,3.619,8.084,8.084,8.084c10.401,0,18.863,8.463,18.863,18.863c0,4.466,3.618,8.084,8.084,8.084
				c4.466,0,8.084-3.619,8.084-8.084c0-10.401,8.463-18.863,18.863-18.863c4.466,0,8.084-3.618,8.084-8.084
				c0-4.466-3.618-8.084-8.084-8.084C94.272,253.305,84.578,258.24,78.147,265.976z"/>
			<path d="M99.705,199.411c26.4,0,51.282-10.216,70.063-28.767c3.177-3.138,3.209-8.256,0.07-11.432
				c-3.137-3.177-8.256-3.207-11.432-0.07c-15.735,15.542-36.582,24.101-58.701,24.101c-46.062,0-83.537-37.475-83.537-83.537
				c0-13.674,3.374-27.233,9.755-39.213c2.099-3.941,0.607-8.837-3.334-10.936c-3.941-2.101-8.837-0.607-10.936,3.334
				C4.029,67.202,0,83.39,0,99.705C0,154.683,44.727,199.411,99.705,199.411z"/>
			<path d="M40.636,40.636c15.777-15.777,36.755-24.467,59.07-24.467c46.062,0,83.537,37.475,83.537,83.537
				c0,12.946-2.878,25.35-8.552,36.869c-1.974,4.004-0.327,8.852,3.679,10.824c1.149,0.566,2.367,0.834,3.567,0.834
				c2.982,0,5.85-1.659,7.258-4.514c6.78-13.76,10.217-28.568,10.217-44.014C199.411,44.727,154.683,0,99.705,0
				C73.072,0,48.034,10.372,29.202,29.204c-3.157,3.156-3.157,8.275,0.001,11.432C32.359,43.794,37.478,43.793,40.636,40.636z"/>
			<path d="M374.568,59.284h10.779c4.466,0,8.084-3.619,8.084-8.084s-3.618-8.084-8.084-8.084h-10.779
				c-7.43,0-13.474-6.044-13.474-13.474c0-7.43,6.044-13.474,13.474-13.474h107.789c7.43,0,13.474,6.044,13.474,13.474
				c0,7.43-6.044,13.474-13.474,13.474h-65.482c-4.466,0-8.084,3.619-8.084,8.084s3.618,8.084,8.084,8.084h65.482
				c16.344,0,29.642-13.298,29.642-29.642C512,13.298,498.702,0,482.358,0H374.568c-16.344,0-29.642,13.298-29.642,29.642
				C344.926,45.986,358.224,59.284,374.568,59.284z"/>
			<path d="M8.084,393.432H148.21c4.466,0,8.084-3.618,8.084-8.084c0-4.466-3.618-8.084-8.084-8.084H8.084
				c-4.466,0-8.084,3.618-8.084,8.084C0,389.813,3.619,393.432,8.084,393.432z"/>
			<path d="M458.105,464.393c0-4.466-3.619-8.084-8.084-8.084h-43.116c-4.466,0-8.084,3.618-8.084,8.084
				c0,4.466,3.618,8.084,8.084,8.084h43.116C454.487,472.477,458.105,468.858,458.105,464.393z"/>
			<path d="M501.3,377.263h-51.279c-4.466,0-8.084,3.618-8.084,8.084c0,4.466,3.618,8.084,8.084,8.084H501.3
				c4.466,0,8.084-3.618,8.084-8.084C509.384,380.882,505.765,377.263,501.3,377.263z"/>
			<path d="M406.199,416.61l24.298-40.498c2.493-4.154,2.56-9.354,0.172-13.571c-2.388-4.217-6.88-6.836-11.725-6.836H317.979
				v-16.168h74.186c6.085,0,11.635-2.817,15.226-7.73c3.592-4.912,4.594-11.055,2.749-16.854L341.546,99.374
				c-2.502-7.861-9.725-13.143-17.975-13.143h-5.592v-2.694c0-4.466-3.618-8.084-8.084-8.084c-4.466,0-8.084,3.619-8.084,8.084
				v2.695h-7.557c-6.482,0-12.432,3.265-15.914,8.735L141.154,310.547c-3.697,5.809-3.935,13.168-0.622,19.204
				c3.313,6.036,9.65,9.786,16.536,9.786h121.838c4.466,0,8.084-3.619,8.084-8.084s-3.619-8.084-8.084-8.084H157.068
				c-1.387,0-2.076-0.876-2.363-1.398s-0.655-1.574,0.088-2.744l137.186-215.577c0.498-0.781,1.348-1.249,2.274-1.249h7.557v253.306
				H187.121c-4.053,0-7.85,1.798-10.42,4.931c-2.57,3.135-3.586,7.211-2.792,11.184l7.757,38.783
				c1.757,8.786,9.536,15.164,18.497,15.164h13.619c4.466,0,8.084-3.619,8.084-8.084s-3.619-8.084-8.084-8.084h-13.619
				c-1.279,0-2.392-0.911-2.642-2.167l-7.113-35.56h223.776l-21.85,36.418c-0.485,0.807-1.37,1.309-2.311,1.309H246.119
				c-4.466,0-8.084,3.619-8.084,8.084s3.618,8.084,8.084,8.084h143.904C396.61,425.768,402.808,422.259,406.199,416.61z
				 M317.979,102.4h5.592c1.178,0,2.21,0.755,2.568,1.878l68.593,215.579c0.361,1.134-0.091,1.995-0.392,2.408
				c-0.302,0.412-0.985,1.104-2.175,1.104h-74.185V102.4z"/>
			<path d="M501.3,495.832h-41.578c-4.466,0-8.084,3.619-8.084,8.084c0,4.466,3.618,8.084,8.084,8.084H501.3
				c4.466,0,8.084-3.618,8.084-8.084C509.384,499.45,505.765,495.832,501.3,495.832z"/>
			<path d="M148.21,416.786H51.2c-4.466,0-8.084,3.618-8.084,8.084c0,4.466,3.619,8.084,8.084,8.084h97.01
				c4.466,0,8.084-3.618,8.084-8.084C156.295,420.405,152.676,416.786,148.21,416.786z"/>
			<path d="M61.979,474.274H8.084c-4.466,0-8.084,3.618-8.084,8.084c0,4.466,3.619,8.084,8.084,8.084h53.895
				c4.466,0,8.084-3.618,8.084-8.084C70.063,477.892,66.445,474.274,61.979,474.274z"/>
			<path d="M320.674,495.832H191.326c-4.466,0-8.084,3.619-8.084,8.084c0,4.466,3.618,8.084,8.084,8.084h129.347
				c4.466,0,8.084-3.618,8.084-8.084C328.758,499.45,325.139,495.832,320.674,495.832z"/>
			<path d="M374.568,456.308H137.432c-4.466,0-8.084,3.618-8.084,8.084c0,4.466,3.619,8.084,8.084,8.084h237.137
				c4.466,0,8.084-3.618,8.084-8.084C382.653,459.927,379.034,456.308,374.568,456.308z"/>
		</g>
	</g>
</g>
</svg>